<svg width="105" height="91" viewBox="0 0 105 91" fill="none" xmlns="http://www.w3.org/2000/svg">
<g id="Frame 12">
<circle id="Ellipse 11" cx="40.5" cy="40.5" r="40.5" fill="#FFF626"/>
<path id="Union" fill-rule="evenodd" clip-rule="evenodd" d="M65.4641 39.0007C64.3595 37.0875 61.9132 36.432 60 37.5366C58.0868 38.6411 57.4313 41.0875 58.5359 43.0007L68.3509 60.0007H48C45.961 60.0007 44.2784 61.5263 44.0313 63.4982C44.0132 63.6422 44.0028 63.7886 44.0005 63.937C44.0002 63.9582 44 63.9794 44 64.0007C44 66.2098 45.7909 68.0007 48 68.0007H67.7927L58.0359 84.9C56.9313 86.8132 57.5868 89.2595 59.5 90.3641C61.4132 91.4687 63.8595 90.8132 64.9641 88.9L75 71.5173L85.0359 88.9C86.1405 90.8132 88.5868 91.4687 90.5 90.3641C92.4132 89.2595 93.0687 86.8132 91.9641 84.9L82.2073 68.0007H101C103.209 68.0007 105 66.2098 105 64.0007C105 61.7915 103.209 60.0007 101 60.0007H81.6491L91.4641 43.0007C92.5687 41.0875 91.9132 38.6411 90 37.5366C88.0868 36.432 85.6405 37.0875 84.5359 39.0007L75 55.5173L65.4641 39.0007Z" fill="white"/>
</g>
</svg>
