<svg width="108" height="89" viewBox="0 0 108 89" fill="none" xmlns="http://www.w3.org/2000/svg">
<g id="Frame 11">
<circle id="Ellipse 11" cx="67.5" cy="48.5" r="40.5" fill="#FF8126"/>
<path id="Union" fill-rule="evenodd" clip-rule="evenodd" d="M21.4641 2C20.3595 0.0868261 17.9132 -0.568675 16 0.535895C14.0868 1.64046 13.4313 4.08683 14.5359 6L24.3509 23H4C1.96103 23 0.278383 24.5256 0.0312517 26.4976C0.0132045 26.6416 0.00281282 26.788 0.000496884 26.9363C0.000166037 26.9575 0 26.9787 0 27C0 29.2091 1.79086 31 4 31H23.7927L14.0359 47.8993C12.9313 49.8125 13.5868 52.2589 15.5 53.3634C17.4132 54.468 19.8595 53.8125 20.9641 51.8993L31 34.5167L41.0359 51.8993C42.1405 53.8125 44.5868 54.468 46.5 53.3634C48.4132 52.2589 49.0687 49.8125 47.9641 47.8993L38.2073 31H57C59.2091 31 61 29.2091 61 27C61 24.7909 59.2091 23 57 23H37.6491L47.4641 6C48.5687 4.08683 47.9132 1.64046 46 0.535895C44.0868 -0.568675 41.6405 0.0868259 40.5359 2L31 18.5167L21.4641 2Z" fill="black"/>
</g>
</svg>
